<svg width="24" height="24" viewBox="0 0 24 24" fill="none" xmlns="http://www.w3.org/2000/svg">
<path d="M22.9094 13.6178C22.8 13.2635 22.5866 12.9504 22.2969 12.719C22.0072 12.4876 21.6546 12.3487 21.2849 12.3203L20.6017 12.261C20.4362 12.2474 20.282 12.1719 20.1698 12.0495C20.0576 11.9272 19.9957 11.767 19.9964 11.601V2.43075C19.9964 2.03293 19.8384 1.6514 19.5571 1.37009C19.2758 1.08879 18.8943 0.930752 18.4964 0.930752H5.5042C5.10637 0.930752 4.72484 1.08879 4.44354 1.37009C4.16223 1.6514 4.0042 2.03293 4.0042 2.43075V11.6003C4.00512 11.7661 3.94335 11.9262 3.83125 12.0484C3.71915 12.1707 3.56501 12.2461 3.3997 12.2595L2.7142 12.3195C2.34608 12.3521 1.99581 12.4927 1.70737 12.7237C1.41893 12.9548 1.20519 13.2659 1.09301 13.618C0.980817 13.9701 0.975181 14.3475 1.07681 14.7028C1.17843 15.0581 1.38278 15.3755 1.6642 15.615L10.0574 22.7513C10.5986 23.215 11.2877 23.4699 12.0003 23.4699C12.713 23.4699 13.4021 23.215 13.9432 22.7513L22.3372 15.6158C22.6197 15.3768 22.8249 15.0594 22.9268 14.7037C23.0287 14.348 23.0226 13.97 22.9094 13.6178ZM11.9999 10.35C12.7584 10.3475 13.4923 10.6187 14.0668 11.1139C14.6413 11.6091 15.0179 12.2949 15.1274 13.0454C15.2368 13.796 15.0718 14.5608 14.6626 15.1994C14.2534 15.838 13.6275 16.3075 12.8999 16.5218V17.1C12.8999 17.3387 12.8051 17.5676 12.6363 17.7364C12.4676 17.9052 12.2386 18 11.9999 18C11.7613 18 11.5323 17.9052 11.3636 17.7364C11.1948 17.5676 11.0999 17.3387 11.0999 17.1V16.5218C10.4493 16.3299 9.87795 15.9331 9.47093 15.3904C9.06391 14.8477 8.84296 14.1881 8.84095 13.5098C8.84095 13.2711 8.93577 13.0421 9.10455 12.8734C9.27333 12.7046 9.50225 12.6098 9.74095 12.6098C9.97964 12.6098 10.2086 12.7046 10.3773 12.8734C10.5461 13.0421 10.6409 13.2711 10.6409 13.5098C10.6409 13.7787 10.7207 14.0416 10.8702 14.2653C11.0196 14.4889 11.232 14.6632 11.4805 14.7661C11.729 14.869 12.0025 14.8958 12.2662 14.8433C12.53 14.7908 12.7723 14.6612 12.9625 14.471C13.1526 14.2807 13.282 14.0384 13.3344 13.7746C13.3868 13.5108 13.3598 13.2373 13.2567 12.9889C13.1537 12.7404 12.9793 12.5281 12.7556 12.3788C12.5319 12.2295 12.2689 12.1499 11.9999 12.15C11.2415 12.1525 10.5076 11.8813 9.93307 11.3861C9.35855 10.8909 8.98198 10.2051 8.87253 9.45456C8.76309 8.70404 8.92811 7.93922 9.3373 7.30061C9.74649 6.66199 10.3724 6.19246 11.0999 5.97825V5.4C11.0999 5.16131 11.1948 4.93239 11.3636 4.76361C11.5323 4.59482 11.7613 4.5 11.9999 4.5C12.2386 4.5 12.4676 4.59482 12.6363 4.76361C12.8051 4.93239 12.8999 5.16131 12.8999 5.4V5.97825C13.5507 6.16999 14.1222 6.56673 14.5294 7.10944C14.9366 7.65214 15.1576 8.3118 15.1597 8.99025C15.1597 9.22895 15.0649 9.45787 14.8961 9.62665C14.7273 9.79543 14.4984 9.89025 14.2597 9.89025C14.021 9.89025 13.7921 9.79543 13.6233 9.62665C13.4545 9.45787 13.3597 9.22895 13.3597 8.99025C13.3597 8.72132 13.2799 8.45843 13.1305 8.23482C12.9811 8.01121 12.7688 7.83692 12.5203 7.73401C12.2718 7.63109 11.9984 7.60416 11.7347 7.65663C11.4709 7.7091 11.2286 7.8386 11.0385 8.02876C10.8483 8.21893 10.7188 8.46121 10.6663 8.72498C10.6139 8.98874 10.6408 9.26214 10.7437 9.51061C10.8466 9.75907 11.0209 9.97143 11.2445 10.1208C11.4681 10.2703 11.731 10.35 11.9999 10.35Z" fill="#01364F"/>
</svg>
